# xmcd CD database file
#
# Track frame offsets:
#	150
#	22752
#	43840
#	81232
#	100470
#	120425
#	167707
#	185050
#	223310
#	239237
#	256247
#	297185
#	307735
#
# Disc length: 4369 seconds
#
# Revision: 0
# Processed by: cddbd v1.4PL0 Copyright (c) Steve Scherf et al.
# Submitted via: CDex 1.50
#
DISCID=b9110f0d
DTITLE=Artistes variés - Jazz Focus [CD2]
DYEAR=1992
DGENRE=Jazz
TTITLE0=U.M.M.G.
TTITLE1=Lugubrious
TTITLE2=Night and day
TTITLE3=A tender thing is love
TTITLE4=Coquette
TTITLE5=Confirmation
TTITLE6=Why don't you do right
TTITLE7=Stuyvesant
TTITLE8=All of you
TTITLE9=The Best thing for you
TTITLE10=Passion Dance
TTITLE11=Do I hear you saying I love you
TTITLE12=Playa del Carmen
EXTD=YEAR: 1992
EXTT0=
EXTT1=
EXTT2=
EXTT3=
EXTT4=
EXTT5=
EXTT6=
EXTT7=
EXTT8=
EXTT9=
EXTT10=
EXTT11=
EXTT12=
PLAYORDER=
